<svg width="272" height="272" viewBox="0 0 272 272" fill="none" xmlns="http://www.w3.org/2000/svg">
<path d="M240.584 37.2914C250.982 47.4347 261.398 57.6141 271.67 67.6494C248.953 90.2062 226.433 112.565 204.38 134.473C227.474 158.075 249.743 180.83 271.832 203.405C261.326 214.089 250.964 224.646 239.758 236.033C235.268 231.168 230.976 226.268 226.379 221.638C203.733 198.81 181.034 176.055 158.298 153.3C153.719 148.706 150.935 143.373 150.702 136.815C150.468 129.933 153.324 124.348 158.065 119.591C184.374 93.197 210.701 66.8026 237.028 40.4263C238.016 39.4354 239.147 38.5525 240.584 37.2914Z" fill="white"/>
<path d="M203.242 0C213.784 10.4316 224.218 20.7552 234.795 31.2228C234.077 32.0516 233.485 32.8083 232.802 33.4749C206.331 60.0134 179.842 86.5519 153.372 113.108C147.05 119.45 139.687 123.126 130.726 120.693C126.919 119.666 122.932 117.541 120.148 114.784C92.9053 87.777 65.8957 60.5359 38.8323 33.3488C38.2396 32.7542 37.7548 32.0336 37.1262 31.2589C47.596 20.8993 57.9401 10.6478 68.5716 0.126116C70.4752 1.92778 72.5584 3.81953 74.5338 5.81937C93.8392 25.2053 113.109 44.6272 132.414 63.9951C135.754 67.3462 135.826 67.2561 139.256 63.8329C160.034 42.9877 180.794 22.1605 201.59 1.33323C202.111 0.810749 202.74 0.396366 203.224 0.0180166L203.242 0Z" fill="white"/>
<path d="M30.7702 235.584C20.5877 224.918 10.4951 214.36 0.133011 203.496C22.2758 181.606 44.8497 159.265 67.3337 137.033C62.6645 132.15 58.8573 128.007 54.8705 124.025C37.4508 106.621 19.9772 89.2527 2.52149 71.8667C-0.800828 68.5697 -0.818798 68.5156 2.3419 65.3086C10.6028 56.9309 18.8996 48.5712 27.2144 40.2295C28.3458 39.0944 29.6209 38.1035 30.878 37.0045C37.8459 43.9589 44.6342 50.7152 51.4225 57.4894C71.3205 77.3438 91.2185 97.2161 111.099 117.088C112.948 118.926 114.744 120.854 116.342 122.926C122.52 130.961 122.7 140.816 116.702 148.996C114.978 151.356 112.912 153.5 110.847 155.59C84.6457 181.948 58.4083 208.271 32.171 234.593C31.9555 234.809 31.6502 234.953 30.7702 235.548V235.584Z" fill="white"/>
<path d="M36.4401 240.795C63.6472 213.752 90.3515 187.141 117.146 160.639C119.821 157.991 122.731 155.288 126.035 153.576C134.655 149.072 143.832 150.514 150.979 157.396C162.186 168.206 173.176 179.268 184.239 190.24C201.012 206.906 217.749 223.589 234.792 240.561C233.355 242.2 232.224 243.606 230.967 244.885C222.454 253.479 213.834 261.965 205.412 270.649C203.49 272.63 202.413 272.288 200.707 270.558C179.803 249.389 158.863 228.255 137.924 207.122C137.331 206.527 136.666 205.987 135.93 205.32C126.987 214.112 118.079 222.742 109.298 231.498C96.188 244.597 83.204 257.803 70.0943 270.883C69.5017 271.477 67.6519 271.82 67.2389 271.405C56.9846 261.352 46.856 251.173 36.4221 240.741L36.4401 240.795Z" fill="white"/>
</svg>
