<svg width="107" height="66" viewBox="0 0 107 66" fill="none" xmlns="http://www.w3.org/2000/svg">
<g clip-path="url(#clip0_6910_2372)">
<path d="M41.5692 2.2112C23.1162 9.25268 21.4263 27.3594 16.0865 35.8092C10.7466 44.2589 -1.55543 49.0203 0.134403 53.3793C1.82424 57.7384 14.1263 53.044 23.8597 55.8606C33.5932 58.6772 46.8415 70.8825 65.2945 63.841C69.7681 62.1284 73.8136 59.4725 77.1513 56.0568C80.4891 52.6411 83.0395 48.5471 84.6262 44.0577C84.7876 43.6931 84.7963 43.2799 84.6506 42.9089C84.5048 42.5379 84.2164 42.2395 83.8489 42.0794C83.4814 41.9193 83.0649 41.9107 82.6909 42.0553C82.317 42.1999 82.0163 42.486 81.8549 42.8506C79.9485 46.6648 77.1256 49.955 73.6351 52.4314C70.1446 54.9077 66.0937 56.4941 61.8394 57.0507C57.5851 57.6073 53.2582 57.117 49.24 55.623C45.2217 54.129 41.6357 51.6773 38.7979 48.4838C37.1559 46.6547 35.7899 44.5991 34.7423 42.3812C34.4043 41.7776 34.1339 41.107 33.8635 40.5035C33.5932 39.8999 33.3904 39.1622 33.1876 38.4916C38.7979 35.9433 45.1517 33.1937 52.4517 30.4442C59.7518 27.6947 66.038 25.4816 71.7835 23.738C75.7039 22.5309 79.2864 21.525 82.4633 20.7202L83.2068 20.5861C83.4398 20.522 83.6887 20.5489 83.9024 20.6611C84.116 20.7733 84.2783 20.9625 84.3559 21.1897C84.4763 21.4469 84.567 21.7169 84.6262 21.9944C85.2871 23.7795 85.7848 25.6199 86.1133 27.4935C86.1443 27.673 86.2181 27.8425 86.3286 27.9878C86.4392 28.1332 86.5832 28.2502 86.7487 28.329C86.9141 28.4078 87.0962 28.4461 87.2797 28.4407C87.4631 28.4354 87.6426 28.3865 87.8031 28.2982C90.4393 26.8899 92.8727 25.4816 95.0356 24.2075C103.147 19.2449 107.608 15.02 106.662 12.6728C105.715 10.3257 99.632 10.1245 90.3041 11.801C87.33 12.3375 84.0179 13.0752 80.503 14.0141L78.678 14.4835C75.6363 15.2882 72.527 16.16 69.2825 17.166C63.1991 19.0437 56.6425 21.3238 49.8832 23.8722C43.1239 26.4205 37.6488 28.7677 32.1061 31.2489C32.079 26.9931 33.1019 22.7953 35.0854 19.0216C37.0689 15.248 39.9529 12.0132 43.4859 9.59924C47.0188 7.18532 51.0934 5.66563 55.3542 5.17273C59.615 4.67982 63.9327 5.22867 67.9307 6.7714C68.2218 6.87024 68.5352 6.88489 68.8345 6.81364C69.1337 6.7424 69.4063 6.58819 69.6205 6.36903C69.7832 6.20237 69.9039 6 69.973 5.77835C70.0421 5.5567 70.0575 5.32202 70.018 5.09336C69.9784 4.8647 69.8851 4.6485 69.7456 4.46233C69.6061 4.27615 69.4243 4.12525 69.2149 4.02187C65.0179 1.74038 60.3692 0.396244 55.5939 0.0834845C50.8186 -0.229275 46.0321 0.496895 41.5692 2.2112Z" fill="#FFF4E1"/>
</g>
<defs>
<clipPath id="clip0_6910_2372">
<rect width="106.798" height="65.9888" fill="white"/>
</clipPath>
</defs>
</svg>
