<svg xmlns="http://www.w3.org/2000/svg" fill="none" viewBox="-3 -3 39 31" style="max-height: 500px" width="33.074999999999996" height="25"><g id="deeditor_bgCarrier" stroke-width="0">
  <rect id="dee_c_e" x="-3" y="-3" width="39" height="31" rx="38.4" fill="#ffffff" strokewidth="0"/>
</g>
<path fill="black" d="M27.3262 6.8751L27.3712 6.85611C27.5052 6.79876 27.6036 6.76745 27.681 6.7576L27.7661 6.74317C27.9405 6.70729 28.1205 6.68935 28.3005 6.68935C29.3833 6.68935 30.2875 6.35196 30.9154 5.71377C31.3671 5.25431 31.6514 4.65799 31.7508 3.96773L31.8059 3.96844V0H25.1928V2.87113C25.1768 3.078 25.1781 3.26833 25.1795 3.43685C25.1809 3.6219 25.182 3.79675 25.1597 3.92938L25.1534 3.9716C25.0787 4.53239 24.8077 5.05307 24.3905 5.4376C23.9632 5.83163 23.7633 5.91818 23.6974 5.93682C23.6311 5.95582 23.5348 5.94702 23.2564 5.90938C23.0164 5.87701 22.6875 5.83269 22.2863 5.83269C20.5725 5.83269 19.1361 7.12665 18.9449 8.84384C18.9023 9.23435 18.9264 9.52636 18.9438 9.7392C18.9634 9.97597 18.9693 10.0474 18.8873 10.2831C18.7248 10.7464 18.3787 11.1764 17.9131 11.4933C17.4474 11.8103 16.9112 11.9852 16.404 11.9852L16.3545 11.9845L16.3049 11.9852C15.7977 11.9852 15.2616 11.8107 14.7959 11.4933C14.3299 11.1764 13.9838 10.7464 13.822 10.2842C13.7396 10.0474 13.7452 9.97562 13.7651 9.7385C13.7826 9.52565 13.8066 9.234 13.7641 8.84243C13.5733 7.1263 12.1368 5.83233 10.423 5.83233C10.0218 5.83233 9.69287 5.87666 9.45113 5.90938C9.17486 5.94667 9.07823 5.95547 9.01195 5.93647C8.94602 5.91747 8.74614 5.83128 8.31883 5.4369C7.90163 5.05272 7.63093 4.53204 7.55593 3.97125L7.54966 3.92903C7.53884 3.86465 7.53361 3.79042 7.53117 3.70985V0H0.916646V3.36367C0.908972 4.3111 1.21211 5.12379 1.79256 5.71413C2.4201 6.35231 3.32427 6.68935 4.40704 6.68935C4.58704 6.68935 4.76669 6.70764 4.9418 6.74353L5.02657 6.7576C5.10366 6.7678 5.20203 6.79911 5.33702 6.85646L5.38133 6.8751C5.82957 7.05382 6.22236 7.35322 6.51712 7.74126C7.24268 8.69538 7.24478 10.0305 6.5227 10.9874C6.28619 11.3012 5.97852 11.563 5.63353 11.7449L5.60248 11.7618C5.50795 11.8138 5.42353 11.8525 5.34609 11.8796C5.31156 11.8916 5.28051 11.9014 5.25156 11.9099L5.21877 11.9197C4.95785 12.0042 4.68471 12.0467 4.40739 12.0467C2.31092 12.0467 0.902344 13.347 0.902344 15.2823C0.902344 16.793 1.58535 17.5769 2.15813 17.9684C2.85719 18.4462 3.70031 18.5816 4.50751 18.6562L4.56332 18.6626C4.7775 18.6907 4.95819 18.735 5.16575 18.8103L5.26586 18.8487L5.28296 18.855C5.82643 19.0422 6.28166 19.4246 6.56526 19.9322C6.72537 20.219 6.8363 20.5944 6.87746 20.9887C6.89351 21.1439 6.90432 21.2941 6.91478 21.4426C6.92281 21.5555 6.93188 21.6822 6.94409 21.8095V24.7232H13.5572V20.8325L13.5105 20.8318C13.4016 20.0835 13.0493 19.3982 12.4919 18.8659C12.4427 18.8195 12.3974 18.7801 12.3611 18.7487L12.3387 18.7294C11.6271 18.1074 10.7017 18.0909 10.0257 18.0785H10.0183C9.90531 18.0764 9.79822 18.0743 9.70368 18.0698L9.60217 18.0539L9.38485 18.005L9.18009 17.9413L8.95928 17.8527C8.728 17.7468 8.51208 17.6089 8.32057 17.4446L8.27766 17.4073C7.66582 16.8556 7.36233 16.1756 7.34978 15.3288C7.35152 14.7237 7.54338 14.1502 7.90476 13.67C8.25708 13.2021 8.75626 12.8538 9.3102 12.6891C9.87112 12.5227 10.9173 12.5185 11.4217 12.6811C12.3408 12.9769 12.9932 13.8276 13.0444 14.7979C13.0486 14.8781 13.0455 14.9622 13.042 15.0607C13.0315 15.3453 13.0172 15.7351 13.1801 16.228C13.6409 17.5994 14.9156 18.5243 16.3555 18.5299C17.7917 18.5243 19.0659 17.599 19.5278 16.2256C19.69 15.7355 19.6757 15.3457 19.6652 15.0597C19.6617 14.9622 19.6586 14.8781 19.6628 14.7983C19.7141 13.828 20.3664 12.9769 21.2855 12.6814C21.79 12.5189 22.8358 12.5231 23.3967 12.6895C23.951 12.8545 24.4505 13.2028 24.8025 13.6707C25.1638 14.1509 25.3557 14.7244 25.3574 15.3295C25.3449 16.1763 25.0414 16.8564 24.4292 17.4083L24.3901 17.4425C24.1955 17.6092 23.9792 17.7475 23.7479 17.8534L23.5275 17.942L23.3227 18.0057L23.1448 18.0472L23.0039 18.0705C22.9097 18.075 22.8023 18.0771 22.6892 18.0793H22.6819C22.0059 18.0916 21.0804 18.1081 20.3706 18.7287L20.3461 18.7502C20.3099 18.7815 20.2649 18.8205 20.2146 18.868C19.6778 19.3806 19.3311 20.0381 19.21 20.7569H19.1507V24.7243H25.7638V21.8106C25.776 21.6836 25.7851 21.5566 25.7931 21.4436C25.8036 21.2976 25.8144 21.1467 25.8305 20.9905C25.8716 20.5954 25.9825 20.22 26.1427 19.9333C26.4263 19.426 26.8815 19.0436 27.425 18.856L27.5422 18.8114C27.7497 18.7364 27.9304 18.6921 28.1449 18.6636L28.2004 18.6573C29.0076 18.5827 29.8507 18.4472 30.5498 17.9695C31.5879 17.2602 31.8056 16.1172 31.8056 15.2834C31.8056 13.3481 30.397 12.0478 28.3005 12.0478C28.0232 12.0478 27.7501 12.0049 27.4891 11.9208L27.4564 11.9109C27.4274 11.9025 27.3964 11.8926 27.3639 11.8814C27.2844 11.8539 27.2 11.8149 27.1033 11.7618L27.0744 11.7459C26.7294 11.564 26.4217 11.3023 26.1849 10.9885C25.4628 10.0316 25.4649 8.69643 26.1905 7.74232C26.4852 7.35462 26.878 7.05488 27.3262 6.87651V6.8751Z"/>
<path fill="black" d="M73.4419 24.4859H69.344V6.75623C69.344 5.85436 68.06 5.68899 67.8313 6.56009L63.1183 24.4859H55.3358L50.6209 6.56009C50.3922 5.68899 49.1082 5.85436 49.1082 6.75623V24.4859H45.0103V0.331629H53.11L58.4938 21.1534C58.6918 21.9226 59.7854 21.9226 59.9834 21.1534L65.3403 0.331629H73.4399V24.484L73.4419 24.4859Z"/>
<path fill="black" d="M74.8066 15.9037C74.8066 10.629 78.1415 6.9735 83.4157 6.9735C88.6899 6.9735 92.0555 10.629 92.0555 15.9037C92.0555 21.1784 88.7206 24.8666 83.4157 24.8666C78.1107 24.8666 74.8066 21.2111 74.8066 15.9037ZM87.9902 15.9037C87.9902 12.1539 86.3699 9.76948 83.4157 9.76948C80.4614 9.76948 78.8411 12.1539 78.8411 15.9037C78.8411 19.6535 80.4922 22.0687 83.4157 22.0687C86.3392 22.0687 87.9902 19.6842 87.9902 15.9037Z"/>
<path fill="black" d="M105.11 7.35616H109.112L103.807 24.4859H96.3743L91.0693 7.35616H95.0403L99.3535 21.5764C99.5745 22.3052 100.605 22.3033 100.826 21.5764L105.11 7.35808V7.35616Z"/>
<path fill="black" d="M124.837 17.0806H113.079C112.593 17.0806 112.233 17.5267 112.326 18.0055C112.849 20.6996 114.432 22.0706 116.608 22.0706C118.784 22.0706 119.912 21.0861 120.516 19.4323H124.55C123.47 23.0879 120.579 24.8666 116.577 24.8666C111.336 24.8666 108.159 21.1168 108.159 15.9037C108.159 10.6906 111.43 6.9735 116.577 6.9735C121.725 6.9735 124.933 10.4694 124.933 15.8076C124.933 16.1883 124.9 16.6344 124.837 17.0786V17.0806ZM113.15 14.3153H119.983C120.473 14.3153 120.837 13.8615 120.735 13.3808C120.27 11.1771 118.73 9.7714 116.575 9.7714C114.421 9.7714 113 10.9309 112.403 13.3616C112.283 13.8461 112.651 14.3153 113.15 14.3153Z"/>
<path fill="black" d="M151.488 13.7115V24.4859H147.517V14.475C147.517 11.2655 146.374 9.80409 144.15 9.80409C141.926 9.80409 140.751 11.2655 140.751 14.5384V24.4859H136.78V14.475C136.78 11.2655 135.637 9.80409 133.413 9.80409C131.189 9.80409 130.015 11.2655 130.015 14.5384V24.4859H126.044V7.35617H129.982V8.09074C129.982 8.78877 130.841 9.13106 131.312 8.6157C132.202 7.63884 133.457 6.9735 135.193 6.9735C137.44 6.9735 138.972 8.15035 139.854 9.6791C140.152 10.1945 140.88 10.1983 141.188 9.68871C142.087 8.18881 143.594 6.9735 145.899 6.9735C149.71 6.9735 151.49 9.80217 151.49 13.7115H151.488Z"/>
<path fill="black" d="M169.148 17.0806H157.391C156.905 17.0806 156.545 17.5267 156.638 18.0055C157.16 20.6996 158.744 22.0706 160.92 22.0706C163.096 22.0706 164.224 21.0861 164.828 19.4323H168.862C167.782 23.0879 164.891 24.8666 160.889 24.8666C155.648 24.8666 152.47 21.1168 152.47 15.9037C152.47 10.6906 155.742 6.9735 160.889 6.9735C166.037 6.9735 169.245 10.4694 169.245 15.8076C169.245 16.1883 169.212 16.6344 169.148 17.0786V17.0806ZM157.462 14.3153H164.295C164.785 14.3153 165.149 13.8615 165.047 13.3808C164.582 11.1771 163.042 9.7714 160.887 9.7714C158.733 9.7714 157.312 10.9309 156.714 13.3616C156.595 13.8461 156.962 14.3153 157.462 14.3153Z"/>
<path fill="black" d="M185.54 13.7116V24.4859H181.569V14.475C181.569 11.2329 180.202 9.80411 177.948 9.80411C175.693 9.80411 174.327 11.2656 174.327 14.5384V24.4859H170.355V7.35619H174.294V8.13498C174.294 8.83686 175.149 9.16569 175.63 8.65418C176.573 7.64848 177.909 6.97544 179.728 6.97544C183.666 6.97544 185.54 9.89834 185.54 13.7135V13.7116Z"/>
<path fill="black" d="M193.011 21.5303C191.55 21.5303 190.691 21.0534 190.691 19.4016V11.0502C190.691 10.6252 191.035 10.281 191.46 10.281H194.756V7.3581H191.46C191.035 7.3581 190.691 7.01389 190.691 6.58892V3.29105H186.72V19.5939C186.72 22.9302 189.167 24.4878 192.342 24.4878H194.82V21.5322H193.009L193.011 21.5303Z"/>
<path fill="black" d="M203.62 8.70877H205.929V9.517H202.497V3.98194H203.443V8.5325C203.443 8.62989 203.522 8.70877 203.62 8.70877Z"/>
<path fill="black" d="M210.747 9.517L210.252 8.0495C210.228 7.97767 210.16 7.92919 210.084 7.92919H207.736C207.66 7.92919 207.592 7.97767 207.568 8.0495L207.073 9.517H206.076L208.005 3.98194H209.816L211.744 9.517H210.747ZM208.127 7.12802H209.693C209.815 7.12802 209.9 7.00992 209.861 6.89534L209.081 4.59273C209.027 4.43276 208.799 4.43276 208.745 4.59273L207.959 6.89534C207.92 7.00948 208.005 7.12802 208.127 7.12802Z"/>
<path fill="black" d="M216.365 7.97282C216.365 8.956 215.609 9.517 214.23 9.517H212.023V3.98194H214.216C215.617 3.98194 216.174 4.65179 216.174 5.42387C216.174 6.19596 215.587 6.59655 214.773 6.67675C215.785 6.71333 216.365 7.13507 216.365 7.97282ZM212.969 4.96644V6.0924C212.969 6.18979 213.048 6.26868 213.146 6.26868H214.238C214.846 6.26868 215.198 6.04304 215.198 5.53317C215.198 5.02329 214.846 4.79016 214.238 4.79016H213.146C213.048 4.79016 212.969 4.86905 212.969 4.96644ZM214.274 8.70833C215.023 8.70833 215.389 8.42409 215.389 7.89262C215.389 7.36115 215.023 7.0769 214.274 7.0769H213.146C213.048 7.0769 212.969 7.15578 212.969 7.25318V8.53206C212.969 8.62945 213.048 8.70833 213.146 8.70833H214.274Z"/>
<path fill="black" d="M216.57 7.82741H217.553C217.648 8.50475 218.176 8.83968 218.858 8.83968C219.746 8.83968 220.237 8.49021 220.237 7.98738C220.237 7.48456 219.834 7.32459 219.012 7.14258L218.264 6.98217C217.362 6.78562 216.739 6.33392 216.739 5.48162C216.739 4.56411 217.655 3.89382 218.822 3.89382C220.09 3.89382 220.875 4.52753 221.036 5.438H220.053C219.892 4.89154 219.437 4.65886 218.822 4.65886C218.206 4.65886 217.685 4.9431 217.685 5.39437C217.685 5.84563 218.015 6.00605 218.829 6.18805L219.569 6.34846C220.655 6.58864 221.175 7.01831 221.175 7.88514C221.175 8.92649 220.244 9.60383 218.836 9.60383C217.611 9.60383 216.731 8.93355 216.57 7.82653L216.57 7.82741Z"/>
<path fill="black" d="M200.535 5.41582C200.535 6.06054 200.33 6.36021 199.977 6.53164C199.846 6.59554 199.847 6.78283 199.979 6.84629C200.328 7.01464 200.535 7.31166 200.535 7.94317V8.96998C200.535 9.36307 200.704 9.55257 201.034 9.55257H201.122V10.2299H200.865C199.999 10.2299 199.618 9.75661 199.618 9.08632V8.0886C199.618 7.30197 199.391 7.17813 198.885 7.11996V6.25313C199.391 6.19495 199.618 6.07112 199.618 5.26995V4.42515C199.618 3.74825 199.992 3.26745 200.865 3.26745H201.122V3.94479H201.034C200.697 3.94479 200.535 4.14134 200.535 4.54193V5.41582Z"/>
<path fill="black" d="M223.137 8.08149C223.137 7.43676 223.342 7.13709 223.694 6.96566C223.825 6.90176 223.824 6.71447 223.693 6.65101C223.344 6.48267 223.137 6.18564 223.137 5.55413V4.52733C223.137 4.13423 222.968 3.94473 222.638 3.94473H222.55V3.2674H222.807C223.672 3.2674 224.053 3.7407 224.053 4.41098V5.4087C224.053 6.19534 224.281 6.31917 224.787 6.37734V7.24418C224.281 7.30235 224.053 7.42618 224.053 8.22735V9.07216C224.053 9.7495 223.679 10.2303 222.807 10.2303H222.55V9.55295H222.638C222.975 9.55295 223.137 9.3564 223.137 8.95581V8.08149Z"/>
</svg>