<svg width="512" height="512" viewBox="0 0 512 512" style="color:#FFFFFF" xmlns="http://www.w3.org/2000/svg" class="h-full w-full"><rect width="512" height="512" x="0" y="0" rx="48" fill="transparent" stroke="transparent" stroke-width="0" stroke-opacity="100%" paint-order="stroke"></rect><svg width="178px" height="178px" viewBox="0 0 36 36" fill="#FFFFFF" x="167" y="167" role="img" style="display:inline-block;vertical-align:middle" xmlns="http://www.w3.org/2000/svg"><g fill="#FFFFFF"><path fill="currentColor" d="m31.42 9.09l-13-6a1 1 0 0 0-.84 0l-13 6A1 1 0 0 0 4 10v17a1 1 0 0 0 .58.91l13 6a1 1 0 0 0 .84 0l13-6A1 1 0 0 0 32 27V10a1 1 0 0 0-.58-.91ZM18 5.1L28.61 10L18 14.9L7.39 10ZM6 11.56l11 5.08v14.8L6 26.36Zm13 19.88v-14.8l11-5.08v14.8Z" class="clr-i-outline clr-i-outline-path-1"/><path fill="none" d="M0 0h36v36H0z"/></g></svg></svg>