<svg width="512" height="512" viewBox="0 0 512 512" style="color:#D3580C" xmlns="http://www.w3.org/2000/svg" class="h-full w-full"><rect width="512" height="512" x="0" y="0" rx="30" fill="transparent" stroke="transparent" stroke-width="0" stroke-opacity="100%" paint-order="stroke"></rect><svg width="256px" height="256px" viewBox="0 0 20 20" fill="#D3580C" x="128" y="128" role="img" style="display:inline-block;vertical-align:middle" xmlns="http://www.w3.org/2000/svg"><g fill="#D3580C"><path fill="currentColor" d="M6 4a2 2 0 0 1 2-2h3.586a1.5 1.5 0 0 1 1.06.44l3.915 3.914A1.5 1.5 0 0 1 17 7.414V14a2 2 0 0 1-2 2H8a2 2 0 0 1-2-2V4Zm2-1a1 1 0 0 0-1 1v10a1 1 0 0 0 1 1h7a1 1 0 0 0 1-1V8h-3.5A1.5 1.5 0 0 1 11 6.5V3H8Zm4 .207V6.5a.5.5 0 0 0 .5.5h3.293L12 3.207ZM4 5a1 1 0 0 1 1-1v10a3 3 0 0 0 3 3h7a1 1 0 0 1-1 1H7.94A3.94 3.94 0 0 1 4 14.06V5Z"/></g></svg></svg>