<svg width="512" height="512" viewBox="0 0 512 512" style="color:#DB0024" xmlns="http://www.w3.org/2000/svg" class="h-full w-full"><rect width="512" height="512" x="0" y="0" rx="76" fill="transparent" stroke="transparent" stroke-width="0" stroke-opacity="100%" paint-order="stroke"></rect><svg width="240px" height="240px" viewBox="0 0 1024 1024" fill="#DB0024" x="136" y="136" role="img" style="display:inline-block;vertical-align:middle" xmlns="http://www.w3.org/2000/svg"><g fill="#DB0024"><path fill="currentColor" d="M128 192v640h768V320H485.76L357.504 192H128zm-32-64h287.872l128.384 128H928a32 32 0 0 1 32 32v576a32 32 0 0 1-32 32H96a32 32 0 0 1-32-32V160a32 32 0 0 1 32-32zm370.752 448l-90.496-90.496l45.248-45.248L512 530.752l90.496-90.496l45.248 45.248L557.248 576l90.496 90.496l-45.248 45.248L512 621.248l-90.496 90.496l-45.248-45.248L466.752 576z"/></g></svg></svg>