<svg width="512" height="512" viewBox="0 0 512 512" style="color:#FFFFFF" xmlns="http://www.w3.org/2000/svg" class="h-full w-full"><rect width="512" height="512" x="0" y="0" rx="48" fill="transparent" stroke="transparent" stroke-width="0" stroke-opacity="100%" paint-order="stroke"></rect><svg width="178px" height="178px" viewBox="0 0 36 36" fill="#FFFFFF" x="167" y="167" role="img" style="display:inline-block;vertical-align:middle" xmlns="http://www.w3.org/2000/svg"><g fill="#FFFFFF"><path fill="currentColor" d="M18 17a7 7 0 1 0-7-7a7 7 0 0 0 7 7Zm0-12a5 5 0 1 1-5 5a5 5 0 0 1 5-5Z" class="clr-i-outline clr-i-outline-path-1"/><path fill="currentColor" d="M30.47 24.37a17.16 17.16 0 0 0-24.93 0A2 2 0 0 0 5 25.74V31a2 2 0 0 0 2 2h22a2 2 0 0 0 2-2v-5.26a2 2 0 0 0-.53-1.37ZM29 31H7v-5.27a15.17 15.17 0 0 1 22 0Z" class="clr-i-outline clr-i-outline-path-2"/><path fill="none" d="M0 0h36v36H0z"/></g></svg></svg>